<svg width="24" height="24" viewBox="0 0 24 24" fill="none" xmlns="http://www.w3.org/2000/svg">
<g clip-path="url(#clip0_14_54)">
<path d="M4.97683 2.66673C4.9766 3.1975 4.82632 3.71613 4.54523 4.15623C4.26414 4.59632 3.86502 4.93786 3.39897 5.13713C2.93291 5.3364 2.42112 5.38433 1.92911 5.27478C1.4371 5.16524 0.987248 4.9032 0.637143 4.52222C0.287038 4.14123 0.0526069 3.65863 -0.0361433 3.13619C-0.124893 2.61375 -0.0639244 2.07524 0.13896 1.58959C0.341844 1.10394 0.677412 0.693241 1.10271 0.410071C1.52801 0.126901 2.02369 -0.0158592 2.5263 6.38995e-05C3.1831 0.0208718 3.80637 0.310983 4.26388 0.808843C4.72139 1.3067 4.97712 1.97313 4.97683 2.66673ZM5.05262 7.30673H-1.49293e-05V24.0001H5.05262V7.30673ZM13.0358 7.30673H8.00841V24.0001H12.9852V15.2401C12.9852 10.3601 19.0105 9.90673 19.0105 15.2401V24.0001H24V13.4267C24 5.20006 15.0821 5.50673 12.9852 9.54673L13.0358 7.30673Z" fill="currentColor"/>
</g>
<defs>
<clipPath id="clip0_14_54">
<rect width="24" height="24" fill="white"/>
</clipPath>
</defs>
</svg>
